<svg xmlns="http://www.w3.org/2000/svg" x="0px" y="0px" width="48" height="48" viewBox="0,0,256,256"
style="fill:#000000;">
<g fill="none" fill-rule="nonzero" stroke="none" stroke-width="1" stroke-linecap="butt" stroke-linejoin="miter" stroke-miterlimit="10" stroke-dasharray="" stroke-dashoffset="0" font-family="none" font-weight="none" font-size="none" text-anchor="none" style="mix-blend-mode: normal"><g transform="scale(5.33333,5.33333)"><path d="M38.844,22.463l-14,-22c-0.367,-0.576 -1.32,-0.576 -1.688,0l-14,22c-0.146,0.23 -0.192,0.512 -0.127,0.777c0.065,0.265 0.237,0.492 0.475,0.628l14,8c0.153,0.088 0.325,0.132 0.496,0.132c0.171,0 0.343,-0.044 0.496,-0.132l14,-8c0.237,-0.136 0.409,-0.362 0.475,-0.628c0.066,-0.266 0.019,-0.547 -0.127,-0.777z" fill="#bafcc3"></path><path d="M24,32c-0.553,0 -1,-0.447 -1,-1v-30c0,-0.553 0.447,-1 1,-1c0.553,0 1,0.447 1,1v30c0,0.553 -0.447,1 -1,1z" fill="#324561"></path><path d="M38.747,27.335c-0.315,-0.354 -0.834,-0.437 -1.243,-0.203l-13.504,7.717l-13.504,-7.717c-0.408,-0.232 -0.928,-0.149 -1.243,0.203c-0.314,0.353 -0.338,0.878 -0.058,1.258l14,19c0.189,0.256 0.488,0.407 0.805,0.407c0.317,0 0.616,-0.151 0.805,-0.407l14,-19c0.28,-0.38 0.257,-0.905 -0.058,-1.258z" fill="#bafcc3"></path><path d="M24,48c-0.553,0 -1,-0.447 -1,-1v-12c0,-0.553 0.447,-1 1,-1c0.553,0 1,0.447 1,1v12c0,0.553 -0.447,1 -1,1z" fill="#324561"></path><path d="M38.5,24c-0.128,0 -0.257,-0.024 -0.383,-0.076l-14.117,-5.842l-14.117,5.842c-0.513,0.21 -1.095,-0.031 -1.307,-0.541c-0.211,-0.511 0.031,-1.096 0.541,-1.307l14.5,-6c0.246,-0.102 0.52,-0.102 0.766,0l14.5,6c0.51,0.211 0.752,0.796 0.541,1.307c-0.159,0.385 -0.531,0.617 -0.924,0.617z" fill="#324561"></path></g></g>
</svg>